<?xml version="1.0" standalone="no"?>
<!DOCTYPE svg PUBLIC "-//W3C//DTD SVG 20010904//EN"
 "http://www.w3.org/TR/2001/REC-SVG-20010904/DTD/svg10.dtd">
<svg version="1.0" xmlns="http://www.w3.org/2000/svg"
 width="1280.000000pt" height="1034.000000pt" viewBox="0 0 1280.000000 1034.000000"
 preserveAspectRatio="xMidYMid meet">
<metadata>
Created by potrace 1.15, written by Peter Selinger 2001-2017
</metadata>
<g transform="translate(0.000000,1034.000000) scale(0.100000,-0.100000)"
fill="#FFFFFF" stroke="none">
<path d="M6437 10320 c-387 -44 -809 -180 -1257 -404 -199 -99 -262 -135 -255
-146 3 -5 0 -12 -6 -16 -8 -4 -9 -3 -5 4 9 15 1 15 -25 1 -11 -5 -17 -14 -14
-19 3 -5 0 -12 -6 -16 -8 -4 -9 -3 -5 4 9 15 1 15 -25 1 -11 -5 -17 -14 -14
-19 3 -5 0 -12 -6 -16 -8 -4 -9 -3 -5 4 9 15 1 15 -25 1 -11 -5 -17 -14 -14
-19 3 -5 0 -12 -6 -16 -8 -5 -9 -3 -4 6 5 8 3 11 -6 8 -8 -3 -14 -10 -14 -16
0 -5 -4 -14 -9 -19 -5 -5 -6 -2 -1 6 5 9 3 12 -6 9 -8 -3 -14 -10 -14 -16 0
-5 -4 -14 -9 -19 -5 -5 -6 -2 -1 6 5 9 3 12 -6 9 -8 -3 -14 -10 -14 -16 0 -5
-4 -14 -9 -19 -5 -5 -6 -2 -1 6 5 9 3 12 -6 9 -8 -3 -14 -10 -14 -16 0 -5 -4
-14 -9 -19 -5 -5 -6 -3 -2 5 10 18 -2 15 -35 -9 -16 -11 -27 -24 -24 -29 3 -4
-3 -14 -13 -21 -15 -13 -16 -12 -3 4 7 9 9 17 3 17 -11 0 -29 -20 -32 -35 -1
-5 -4 -12 -7 -15 -4 -3 -3 1 1 8 4 6 3 12 -2 12 -12 0 -33 -25 -27 -32 3 -3
-3 -11 -12 -19 -16 -13 -17 -12 -4 4 20 25 -2 21 -25 -5 -12 -13 -13 -18 -4
-13 9 5 8 0 -4 -13 -21 -25 -36 -31 -16 -7 22 27 -6 16 -31 -12 -18 -21 -19
-24 -4 -13 11 8 4 -3 -14 -23 -19 -20 -37 -37 -40 -37 -2 0 6 12 20 26 13 15
19 25 12 23 -20 -6 -233 -209 -233 -222 0 -6 44 31 98 83 l97 95 -104 -107
c-58 -59 -107 -105 -110 -103 -6 7 -51 -36 -51 -48 0 -5 8 -3 18 4 14 11 13
10 -2 -9 -21 -24 -31 -29 -21 -9 4 6 -10 -6 -29 -28 -20 -22 -36 -44 -36 -50
0 -5 14 6 31 25 l30 35 -26 -37 c-15 -21 -31 -35 -36 -32 -5 3 -28 -26 -53
-63 -210 -327 -249 -649 -115 -955 32 -73 111 -202 131 -214 13 -8 2 12 -21
40 -9 11 -11 16 -4 12 7 -3 22 -21 35 -38 12 -17 17 -28 10 -24 -7 4 -12 3
-12 -1 0 -11 163 -173 174 -173 5 0 1 10 -10 23 -17 20 -16 20 9 -2 29 -26 35
-37 15 -25 -7 4 -4 -2 6 -14 23 -26 45 -30 25 -4 -13 15 -12 16 3 3 10 -7 15
-17 12 -22 -8 -14 152 -114 304 -189 193 -96 326 -148 867 -340 386 -137 641
-246 806 -346 61 -37 74 -41 63 -21 -4 7 -3 9 2 4 5 -5 9 -14 9 -20 0 -5 6
-12 14 -15 9 -3 11 0 6 8 -5 9 -4 11 4 6 6 -4 9 -11 6 -15 -4 -8 98 -91 112
-91 3 0 -1 8 -8 18 -11 14 -10 13 9 -2 24 -21 29 -31 10 -20 -7 4 9 -16 37
-45 27 -28 54 -51 59 -51 6 0 -10 21 -34 48 -31 32 -25 28 18 -13 34 -33 62
-61 62 -64 0 -2 -9 4 -20 14 -11 10 -20 14 -20 8 0 -13 45 -55 52 -48 2 3 13
-5 24 -17 15 -18 16 -20 2 -9 -10 7 -18 9 -18 3 0 -13 25 -33 32 -26 3 3 16
-10 28 -28 l22 -33 -26 30 c-36 42 -32 25 9 -40 64 -100 77 -141 73 -225 -4
-55 -12 -89 -31 -127 -30 -59 -32 -67 -14 -57 7 4 9 3 4 -2 -5 -5 -14 -9 -20
-9 -5 0 -12 -6 -15 -14 -3 -9 0 -11 8 -6 9 6 11 4 6 -4 -5 -7 -11 -10 -14 -7
-7 7 -32 -13 -32 -26 0 -6 8 -4 18 3 15 13 16 12 4 -3 -8 -10 -17 -16 -21 -15
-4 1 -50 -40 -102 -92 -52 -52 -87 -90 -79 -86 8 5 4 -4 -9 -18 -14 -15 -27
-27 -29 -27 -3 0 3 9 13 20 10 11 14 20 8 20 -13 0 -55 -45 -48 -52 3 -3 -3
-11 -12 -19 -16 -13 -17 -12 -4 4 7 9 9 17 3 17 -12 0 -34 -25 -27 -32 3 -3
-3 -11 -12 -19 -16 -13 -17 -12 -4 4 7 9 9 17 3 17 -12 0 -34 -25 -27 -32 3
-3 -3 -11 -12 -19 -16 -13 -17 -12 -4 4 7 9 9 17 3 17 -12 0 -34 -25 -27 -32
3 -3 -3 -11 -12 -19 -16 -13 -17 -12 -4 4 7 9 9 17 3 17 -12 0 -30 -21 -30
-35 -1 -5 -11 -16 -24 -24 -21 -12 -21 -12 2 8 30 24 20 28 -15 5 -14 -9 -23
-20 -20 -24 3 -4 -3 -14 -13 -21 -15 -13 -16 -12 -3 4 7 9 11 17 7 17 -15 0
-235 -153 -231 -161 3 -4 0 -11 -6 -15 -8 -5 -9 -3 -4 6 5 8 3 11 -6 8 -8 -3
-14 -10 -14 -16 0 -5 -4 -14 -9 -19 -5 -5 -6 -3 -2 5 4 6 4 12 0 12 -15 0
-134 -83 -129 -90 3 -4 -3 -14 -13 -21 -15 -13 -16 -12 -3 4 7 9 9 17 3 17
-12 0 -34 -25 -27 -32 3 -3 -3 -11 -12 -19 -16 -13 -17 -12 -4 4 7 9 9 17 3
17 -12 0 -34 -25 -27 -32 3 -3 -5 -13 -17 -24 l-23 -19 19 23 c27 32 5 27 -27
-6 -30 -32 -35 -57 -11 -66 9 -3 348 -6 754 -6 805 0 802 0 978 59 108 36 295
128 287 141 -3 5 0 12 6 16 8 5 9 3 4 -6 -13 -21 16 -6 100 50 42 28 73 55 70
59 -2 5 3 15 13 22 15 13 16 12 3 -3 -7 -10 -9 -18 -3 -18 12 0 34 25 27 32
-3 3 5 13 17 24 l23 19 -19 -22 c-11 -13 -15 -23 -9 -23 12 0 55 45 48 52 -3
2 7 15 22 29 25 22 26 22 9 2 -11 -13 -14 -23 -9 -23 14 0 243 229 243 243 0
6 -10 2 -22 -9 -21 -17 -21 -16 1 9 25 28 38 36 25 15 -20 -32 21 10 56 57 42
57 49 71 28 59 -8 -4 -10 -3 -5 2 5 5 14 9 20 9 5 0 12 6 15 14 3 9 0 11 -9 6
-8 -5 -11 -4 -6 1 5 5 14 9 20 9 5 0 12 6 15 14 3 9 0 11 -9 6 -8 -5 -11 -4
-6 1 5 5 14 9 20 9 15 0 101 173 131 263 81 250 50 419 -117 639 -21 29 -43
51 -47 48 -4 -2 -20 10 -36 28 l-29 32 33 -29 c17 -17 32 -25 32 -20 0 12
-162 174 -174 174 -5 0 1 -11 14 -25 13 -14 21 -25 19 -25 -3 0 -18 14 -35 32
-16 17 -22 27 -14 23 10 -5 8 -1 -4 13 -23 26 -45 30 -25 5 13 -16 12 -17 -3
-4 -10 7 -15 17 -13 22 3 4 -27 31 -66 59 -71 49 -97 61 -83 38 4 -7 3 -8 -5
-4 -6 4 -9 11 -6 16 7 12 -144 93 -279 151 -293 123 -573 197 -1321 349 -576
117 -837 192 -1075 311 -74 37 -136 66 -138 64 -2 -2 10 -11 27 -20 17 -8 31
-18 31 -21 0 -3 -15 3 -32 13 -18 11 -33 24 -33 31 0 12 -34 41 -50 41 -5 1 1
-9 15 -20 l25 -21 -25 14 c-14 9 -25 19 -25 24 0 15 -16 34 -27 34 -6 0 -5 -7
3 -17 7 -10 1 -7 -14 6 -30 27 -37 41 -9 20 9 -7 6 -1 -7 14 -27 30 -51 38
-30 10 7 -10 -13 7 -44 37 -31 30 -57 57 -57 59 0 3 18 -13 40 -34 22 -21 40
-35 40 -29 0 5 -21 30 -46 54 -26 25 -43 38 -39 30 6 -10 1 -8 -13 4 -25 21
-31 36 -7 16 9 -8 15 -9 15 -2 0 11 -19 27 -34 27 -5 0 -15 11 -24 25 l-14 25
21 -25 c11 -14 21 -22 21 -18 0 15 -40 73 -52 73 -6 0 -13 7 -15 15 -4 13 -3
13 6 0 18 -25 12 0 -15 69 -21 50 -28 89 -32 163 -6 118 13 203 69 315 44 87
44 87 27 77 -8 -4 -10 -3 -5 2 5 5 12 9 15 9 13 0 32 16 32 27 0 6 -7 5 -17
-3 -16 -11 -16 -11 -5 1 7 8 18 15 24 15 6 0 13 6 16 14 3 9 0 11 -9 5 -12 -7
-12 -5 0 9 16 20 25 23 15 5 -4 -7 2 -4 14 6 26 23 30 44 5 25 -15 -12 -15
-10 1 8 10 12 23 21 30 20 6 -1 10 4 8 11 -1 8 1 11 6 8 12 -7 104 88 95 98
-5 4 -1 6 7 4 8 -2 14 2 13 8 -1 7 8 20 20 30 18 16 20 16 8 2 -7 -10 -9 -18
-4 -18 13 0 45 35 38 42 -3 3 3 11 12 19 16 13 17 12 4 -3 -20 -26 2 -22 25 4
12 13 13 18 4 13 -9 -5 -8 0 4 13 21 25 36 31 16 7 -7 -8 -8 -15 -2 -15 12 0
34 25 27 32 -3 3 3 11 12 19 16 13 17 12 4 -3 -8 -11 -9 -18 -3 -18 11 0 27
19 27 32 0 3 4 10 9 15 5 5 6 2 1 -6 -5 -9 -3 -12 6 -9 8 3 14 10 14 15 0 6 4
15 9 20 5 5 6 2 1 -6 -5 -9 -3 -12 6 -9 8 3 14 10 14 15 0 6 4 15 9 20 5 5 6
2 1 -6 -5 -9 -3 -12 6 -9 8 3 14 10 14 15 0 6 4 15 9 20 5 5 6 2 1 -6 -5 -9
-3 -12 6 -9 8 3 14 10 14 15 0 6 4 15 9 20 5 5 6 3 2 -4 -11 -20 -2 -16 91 37
247 142 592 282 799 325 327 67 661 23 943 -126 103 -54 105 -55 95 -36 -4 7
-3 9 2 4 5 -5 9 -14 9 -19 0 -6 6 -13 14 -16 9 -3 11 0 6 9 -5 8 -4 11 1 6 5
-5 9 -12 9 -16 0 -10 60 -61 71 -61 5 0 -7 14 -26 32 l-35 31 33 -24 c19 -13
33 -28 33 -34 0 -13 70 -85 83 -85 6 0 -8 18 -29 40 -21 22 -37 40 -34 40 2 0
31 -28 64 -62 33 -34 50 -54 38 -44 -35 29 -27 3 9 -30 18 -16 26 -20 18 -9
-15 20 -14 20 8 1 23 -20 30 -32 11 -20 -7 4 -10 1 -7 -7 3 -8 10 -14 16 -14
5 0 14 -4 19 -9 5 -5 2 -6 -6 -1 -9 5 -12 3 -9 -6 3 -8 10 -14 16 -14 5 0 14
-4 19 -9 5 -5 3 -6 -4 -2 -18 10 -17 7 17 -66 41 -88 55 -169 40 -235 -6 -29
-16 -55 -21 -58 -5 -4 -9 -12 -9 -18 0 -7 7 -3 15 7 8 11 15 15 15 9 0 -6 -7
-16 -15 -23 -8 -7 -15 -9 -15 -5 0 4 -26 -17 -57 -46 -32 -28 -58 -56 -58 -60
0 -4 -4 -11 -9 -16 -5 -5 -6 -3 -2 5 11 18 3 15 -66 -22 -83 -46 -172 -80
-415 -161 -215 -71 -306 -116 -311 -151 -8 -53 64 -76 227 -75 308 2 695 104
986 260 50 26 89 53 88 59 -2 6 12 21 30 32 l32 22 -30 -26 c-16 -14 -25 -26
-20 -26 6 0 26 14 45 31 19 17 28 27 20 23 -8 -4 9 18 39 49 30 31 59 55 64
54 16 -3 60 83 72 140 23 116 -12 350 -76 506 -37 88 -107 209 -118 202 -5 -2
-15 3 -22 13 -13 15 -12 16 4 3 9 -7 17 -9 17 -3 0 12 -25 34 -32 27 -3 -3
-11 3 -19 12 -13 16 -12 17 4 4 25 -20 21 2 -5 25 -13 12 -18 13 -13 4 5 -8
-34 25 -86 74 -52 50 -94 94 -94 98 0 11 -46 48 -60 48 -5 0 1 -10 15 -21 l25
-21 -25 14 c-14 9 -25 21 -25 27 0 6 -13 20 -30 31 -34 22 -50 26 -39 8 4 -7
3 -8 -5 -4 -6 4 -9 11 -6 16 13 21 -245 129 -400 169 -171 44 -244 52 -495 56
-135 2 -280 0 -323 -5z m181 -7 c-15 -2 -42 -2 -60 0 -18 2 -6 4 27 4 33 0 48
-2 33 -4z m260 0 c-15 -2 -42 -2 -60 0 -18 2 -6 4 27 4 33 0 48 -2 33 -4z
m-375 -10 c-13 -2 -35 -2 -50 0 -16 2 -5 4 22 4 28 0 40 -2 28 -4z m470 0
c-13 -2 -33 -2 -45 0 -13 2 -3 4 22 4 25 0 35 -2 23 -4z m-608 -14 c-51 -10
-92 -10 -50 1 17 4 44 8 60 8 25 0 24 -2 -10 -9z m735 1 l25 -8 -25 0 c-14 0
-36 4 -50 8 l-25 8 25 0 c14 0 36 -4 50 -8z m-855 -20 c-16 -4 -39 -8 -50 -8
-16 0 -15 2 5 8 14 4 36 8 50 8 22 0 22 -1 -5 -8z m955 0 c20 -6 21 -8 5 -8
-11 0 -29 3 -40 8 -25 11 1 11 35 0z m-1055 -20 c-11 -5 -29 -8 -40 -8 -16 0
-15 2 5 8 34 11 60 11 35 0z m-90 -20 c-11 -5 -27 -9 -35 -9 -9 0 -8 4 5 9 11
5 27 9 35 9 9 0 8 -4 -5 -9z m1290 0 c13 -6 15 -9 5 -9 -8 0 -22 4 -30 9 -18
12 -2 12 25 0z m-1365 -20 c-8 -5 -22 -9 -30 -9 -10 0 -8 3 5 9 27 12 43 12
25 0z m1425 0 c13 -6 15 -9 5 -9 -8 0 -22 4 -30 9 -18 12 -2 12 25 0z m-1490
-20 c-11 -5 -27 -9 -35 -9 -9 0 -8 4 5 9 11 5 27 9 35 9 9 0 8 -4 -5 -9z
m1545 0 c8 -5 11 -10 5 -10 -5 0 -17 5 -25 10 -8 5 -10 10 -5 10 6 0 17 -5 25
-10z m50 -20 c8 -5 11 -10 5 -10 -5 0 -17 5 -25 10 -8 5 -10 10 -5 10 6 0 17
-5 25 -10z m-1730 -20 c-8 -5 -19 -10 -25 -10 -5 0 -3 5 5 10 8 5 20 10 25 10
6 0 3 -5 -5 -10z m-50 -20 c-8 -5 -22 -9 -30 -9 -10 0 -8 3 5 9 27 12 43 12
25 0z m-60 -20 c-8 -5 -19 -10 -25 -10 -5 0 -3 5 5 10 8 5 20 10 25 10 6 0 3
-5 -5 -10z m-50 -20 c-8 -5 -22 -9 -30 -9 -10 0 -8 3 5 9 27 12 43 12 25 0z
m2100 -36 c0 -2 -9 0 -20 6 -11 6 -20 13 -20 16 0 2 9 0 20 -6 11 -6 20 -13
20 -16z m-2190 1 c-14 -8 -29 -14 -35 -14 -5 0 1 6 15 14 14 8 30 14 35 14 6
0 -1 -6 -15 -14z m-60 -25 c-8 -5 -19 -10 -25 -10 -5 0 -3 5 5 10 8 5 20 10
25 10 6 0 3 -5 -5 -10z m-50 -20 c-8 -5 -19 -10 -25 -10 -5 0 -3 5 5 10 8 5
20 10 25 10 6 0 3 -5 -5 -10z m-45 -20 c-3 -5 -12 -10 -18 -10 -7 0 -6 4 3 10
19 12 23 12 15 0z m-65 -30 c-19 -11 -39 -19 -45 -19 -5 0 6 8 25 19 19 11 40
19 45 19 6 0 -6 -8 -25 -19z m-65 -30 c-3 -5 -12 -10 -18 -10 -7 0 -6 4 3 10
19 12 23 12 15 0z m-115 -54 c0 -6 -92 -57 -97 -53 -1 2 18 16 45 30 51 28 52
29 52 23z m1428 -13 c-21 -2 -57 -2 -80 0 -24 2 -7 4 37 4 44 0 63 -2 43 -4z
m-190 -10 c-10 -2 -26 -2 -35 0 -10 3 -2 5 17 5 19 0 27 -2 18 -5z m372 -3
c16 -5 2 -6 -35 -3 -33 3 -62 7 -64 9 -8 7 74 2 99 -6z m-437 -7 c-7 -2 -19
-2 -25 0 -7 3 -2 5 12 5 14 0 19 -2 13 -5z m-73 -13 c-14 -4 -34 -8 -45 -8
-16 0 -15 2 5 8 14 4 34 8 45 8 16 0 15 -2 -5 -8z m610 0 c20 -6 21 -8 5 -8
-11 0 -31 4 -45 8 -20 6 -21 8 -5 8 11 0 31 -4 45 -8z m-1820 -15 c0 -2 -13
-11 -30 -20 -38 -19 -40 -11 -2 9 31 17 32 18 32 11z m1125 -5 c-11 -5 -27 -9
-35 -9 -9 0 -8 4 5 9 11 5 27 9 35 9 9 0 8 -4 -5 -9z m770 0 c13 -5 14 -9 5
-9 -8 0 -24 4 -35 9 -13 5 -14 9 -5 9 8 0 24 -4 35 -9z m-840 -20 c-11 -5 -27
-9 -35 -9 -9 0 -8 4 5 9 11 5 27 9 35 9 9 0 8 -4 -5 -9z m905 0 c18 -12 2 -12
-25 0 -13 6 -15 9 -5 9 8 0 22 -4 30 -9z m-960 -14 c0 -6 -93 -37 -97 -32 -2
2 15 11 39 19 47 17 58 19 58 13z m1010 -6 c8 -5 11 -10 5 -10 -5 0 -17 5 -25
10 -8 5 -10 10 -5 10 6 0 17 -5 25 -10z m50 -20 c8 -5 11 -10 5 -10 -5 0 -17
5 -25 10 -8 5 -10 10 -5 10 6 0 17 -5 25 -10z m1011 -75 l10 -20 -16 20 c-9
11 -21 29 -26 40 l-10 20 16 -20 c9 -11 21 -29 26 -40z m-2266 25 c-22 -10
-44 -18 -50 -18 -5 0 8 8 30 19 22 10 45 18 50 18 6 0 -8 -9 -30 -19z m1415
-36 c0 -2 -9 0 -20 6 -11 6 -20 13 -20 16 0 2 9 0 20 -6 11 -6 20 -13 20 -16z
m-1490 6 c-8 -5 -19 -10 -25 -10 -5 0 -3 5 5 10 8 5 20 10 25 10 6 0 3 -5 -5
-10z m-40 -14 c0 -2 -7 -7 -16 -10 -8 -3 -12 -2 -9 4 6 10 25 14 25 6z m2404
-22 c3 -8 2 -12 -4 -9 -6 3 -10 10 -10 16 0 14 7 11 14 -7z m-2445 2 c-10 -9
-149 -76 -149 -71 0 6 131 74 144 75 5 0 7 -2 5 -4z m2491 -101 c0 -5 -5 -3
-10 5 -5 8 -10 20 -10 25 0 6 5 3 10 -5 5 -8 10 -19 10 -25z m-2650 21 c0 -2
-7 -7 -16 -10 -8 -3 -12 -2 -9 4 6 10 25 14 25 6z m-60 -31 c0 -2 -10 -9 -22
-15 -22 -11 -22 -10 -4 4 21 17 26 19 26 11z m2730 -40 c0 -5 -5 -3 -10 5 -5
8 -10 20 -10 25 0 6 5 3 10 -5 5 -8 10 -19 10 -25z m-2780 10 c0 -2 -13 -11
-30 -20 -38 -19 -40 -11 -2 9 31 17 32 18 32 11z m2799 -75 c0 -10 -3 -8 -9 5
-12 27 -12 43 0 25 5 -8 9 -22 9 -30z m19 -85 c0 -16 -2 -15 -8 5 -11 34 -11
60 0 35 5 -11 8 -29 8 -40z m21 -179 c1 -89 -6 -64 -11 44 -4 63 -3 82 3 55 4
-22 8 -67 8 -99z m-599 69 c0 -5 -5 -3 -10 5 -5 8 -10 20 -10 25 0 6 5 3 10
-5 5 -8 10 -19 10 -25z m19 -65 c0 -9 -4 -8 -9 5 -5 11 -9 27 -9 35 0 9 4 8 9
-5 5 -11 9 -27 9 -35z m-2709 6 c0 -2 -8 -10 -17 -17 -16 -13 -17 -12 -4 4 13
16 21 21 21 13z m2717 -98 c-2 -13 -4 -5 -4 17 -1 22 1 32 4 23 2 -10 2 -28 0
-40z m563 -48 l-11 -25 6 25 c2 14 5 36 6 50 l2 25 4 -25 c2 -14 -1 -37 -7
-50z m-578 -22 c-8 -8 -9 -4 -5 13 4 13 8 18 11 10 2 -7 -1 -18 -6 -23z m568
-16 c0 -5 -7 -17 -15 -28 -14 -18 -14 -17 -4 9 12 27 19 34 19 19z m-4236 -42
c-15 -22 -29 -40 -31 -40 -5 0 3 15 29 53 30 43 31 32 2 -13z m3605 -36 c-13
-14 -37 -35 -54 -46 -16 -12 -7 0 20 25 55 51 71 61 34 21z m-2876 -59 c-15
-30 -29 -53 -31 -51 -4 5 46 106 53 106 3 0 -7 -25 -22 -55z m-773 25 c-6 -11
-13 -20 -16 -20 -2 0 0 9 6 20 6 11 13 20 16 20 2 0 0 -9 -6 -20z m-47 -85
c-9 -19 -18 -33 -21 -31 -4 5 26 66 33 66 3 0 -3 -16 -12 -35z m3577 30 c0 -2
-13 -11 -30 -20 -38 -19 -40 -11 -2 9 31 17 32 18 32 11z m-70 -40 c0 -5 -69
-35 -79 -34 -5 0 68 38 77 39 1 0 2 -2 2 -5z m580 -40 c0 -2 -10 -9 -22 -15
-22 -11 -22 -10 -4 4 21 17 26 19 26 11z m-4129 -42 c-12 -20 -14 -14 -5 12 4
9 9 14 11 11 3 -2 0 -13 -6 -23z m3399 17 c-8 -5 -19 -10 -25 -10 -5 0 -3 5 5
10 8 5 20 10 25 10 6 0 3 -5 -5 -10z m-2599 -51 c-5 -26 -9 -34 -10 -19 -1 27
9 73 15 67 2 -2 0 -23 -5 -48z m3279 46 c0 -6 -137 -75 -147 -75 -6 1 134 77
145 80 1 0 2 -2 2 -5z m-730 -15 c-8 -5 -22 -9 -30 -9 -10 0 -8 3 5 9 27 12
43 12 25 0z m-60 -20 c-8 -5 -22 -9 -30 -9 -10 0 -8 3 5 9 27 12 43 12 25 0z
m-60 -20 c-8 -5 -22 -9 -30 -9 -10 0 -8 3 5 9 27 12 43 12 25 0z m-60 -20 c-8
-5 -22 -9 -30 -9 -10 0 -8 3 5 9 27 12 43 12 25 0z m730 -15 c-14 -8 -29 -14
-35 -14 -5 0 1 6 15 14 14 8 30 14 35 14 6 0 -1 -6 -15 -14z m-790 -5 c-8 -5
-22 -9 -30 -9 -10 0 -8 3 5 9 27 12 43 12 25 0z m-3146 -34 c-3 -15 -8 -25
-11 -23 -2 3 -1 17 3 31 3 15 8 25 11 23 2 -3 1 -17 -3 -31z m3086 14 c-8 -5
-22 -9 -30 -9 -10 0 -8 3 5 9 27 12 43 12 25 0z m790 1 c-8 -5 -26 -11 -40
-15 -21 -5 -20 -3 5 9 32 15 60 20 35 6z m-880 -36 c-14 -8 -29 -14 -35 -14
-5 0 1 6 15 14 14 8 30 14 35 14 6 0 -1 -6 -15 -14z m795 5 c-27 -12 -43 -12
-25 0 8 5 22 9 30 9 10 0 8 -3 -5 -9z m-75 -25 c-19 -7 -42 -13 -50 -13 -8 0
1 6 20 13 19 7 42 13 50 13 8 0 -1 -6 -20 -13z m-794 -18 c-37 -30 -30 -51 21
-66 37 -10 37 -10 4 -6 -38 6 -61 21 -61 40 0 13 46 55 59 55 3 0 -7 -11 -23
-23z m-2939 -19 c-3 -7 -5 -2 -5 12 0 14 2 19 5 13 2 -7 2 -19 0 -25z m856
-23 c4 -34 3 -42 -3 -25 -8 25 -13 87 -6 79 2 -2 6 -26 9 -54z m2767 29 c-25
-8 -63 -17 -85 -19 -25 -3 -14 2 30 14 82 22 120 25 55 5z m-3633 -61 c-3 -10
-5 -4 -5 12 0 17 2 24 5 18 2 -7 2 -21 0 -30z m3500 31 c-3 -3 -12 -4 -19 -1
-8 3 -5 6 6 6 11 1 17 -2 13 -5z m-44 -11 c-7 -2 -21 -2 -30 0 -10 3 -4 5 12
5 17 0 24 -2 18 -5z m-78 -13 c-16 -4 -50 -7 -75 -7 l-45 0 50 7 c28 4 61 7
75 7 22 1 21 0 -5 -7z m-187 -17 c-32 -2 -86 -2 -120 0 -35 2 -9 3 57 3 66 0
94 -1 63 -3z m-2284 -89 c3 -8 2 -12 -4 -9 -6 3 -10 10 -10 16 0 14 7 11 14
-7z m-901 -139 c4 -34 3 -42 -3 -25 -8 25 -13 87 -6 79 2 -2 6 -26 9 -54z m26
-115 c0 -9 -4 -8 -9 5 -5 11 -9 27 -9 35 0 9 4 8 9 -5 5 -11 9 -27 9 -35z m20
-60 c0 -10 -3 -8 -9 5 -12 27 -12 43 0 25 5 -8 9 -22 9 -30z m15 -36 c3 -8 2
-12 -4 -9 -6 3 -10 10 -10 16 0 14 7 11 14 -7z m26 -59 c0 -5 -5 -3 -10 5 -5
8 -10 20 -10 25 0 6 5 3 10 -5 5 -8 10 -19 10 -25z m47 -80 c21 -42 1 -19 -26
30 -13 22 -15 31 -6 20 9 -11 23 -33 32 -50z m1268 7 c-3 -3 -11 0 -18 7 -9
10 -8 11 6 5 10 -3 15 -9 12 -12z m166 -67 c46 -19 79 -34 73 -35 -12 0 -154
57 -163 65 -9 10 6 5 90 -30z m124 -45 c13 -6 15 -9 5 -9 -8 0 -22 4 -30 9
-18 12 -2 12 25 0z m95 -31 c10 -6 4 -7 -15 -3 -16 4 -37 11 -45 15 -10 6 -4
7 15 3 17 -4 37 -11 45 -15z m-1510 -44 c30 -30 52 -55 49 -55 -2 0 -29 25
-59 55 -30 30 -52 55 -49 55 2 0 29 -25 59 -55z m1575 25 c13 -5 14 -9 5 -9
-8 0 -24 4 -35 9 -13 5 -14 9 -5 9 8 0 24 -4 35 -9z m95 -24 c25 -8 38 -15 30
-15 -8 0 -35 6 -60 13 -25 8 -38 15 -30 15 8 0 35 -6 60 -13z m77 -22 c-3 -3
-12 -4 -19 -1 -8 3 -5 6 6 6 11 1 17 -2 13 -5z m88 -18 c28 -8 43 -15 35 -15
-8 0 -37 6 -65 13 -27 8 -43 15 -35 15 8 0 38 -6 65 -13z m160 -37 c12 -5 2
-6 -25 -2 -25 3 -54 10 -65 14 -12 5 -2 6 25 2 25 -3 54 -10 65 -14z m68 -16
c-7 -2 -21 -2 -30 0 -10 3 -4 5 12 5 17 0 24 -2 18 -5z m44 -9 c-3 -3 -12 -4
-19 -1 -8 3 -5 6 6 6 11 1 17 -2 13 -5z m56 -11 c-7 -2 -21 -2 -30 0 -10 3 -4
5 12 5 17 0 24 -2 18 -5z m44 -9 c-3 -3 -12 -4 -19 -1 -8 3 -5 6 6 6 11 1 17
-2 13 -5z m83 -14 c20 -6 21 -8 5 -8 -11 0 -33 4 -50 8 -27 7 -27 8 -5 8 14 0
36 -4 50 -8z m100 -20 c20 -6 21 -8 5 -8 -11 0 -33 4 -50 8 -27 7 -27 8 -5 8
14 0 36 -4 50 -8z m100 -20 c20 -6 21 -8 5 -8 -11 0 -33 4 -50 8 -27 7 -27 8
-5 8 14 0 36 -4 50 -8z m-2185 -55 c11 -9 2 -7 -20 6 -22 12 -44 26 -50 32
-16 15 48 -20 70 -38z m2248 38 c-7 -2 -19 -2 -25 0 -7 3 -2 5 12 5 14 0 19
-2 13 -5z m44 -9 c-3 -3 -12 -4 -19 -1 -8 3 -5 6 6 6 11 1 17 -2 13 -5z m78
-14 c14 -7 8 -8 -20 -3 -22 3 -42 7 -44 9 -9 8 45 2 64 -6z m68 -17 c-7 -2
-21 -2 -30 0 -10 3 -4 5 12 5 17 0 24 -2 18 -5z m67 -13 c20 -6 21 -8 5 -8
-11 0 -29 3 -40 8 -25 11 1 11 35 0z m-2380 -55 c0 -3 -22 6 -50 20 -27 14
-50 28 -50 30 0 3 23 -6 50 -20 28 -14 50 -28 50 -30z m2460 35 c20 -6 21 -8
5 -8 -11 0 -29 3 -40 8 -25 11 1 11 35 0z m57 -16 c-3 -3 -12 -4 -19 -1 -8 3
-5 6 6 6 11 1 17 -2 13 -5z m40 -10 c-3 -3 -12 -4 -19 -1 -8 3 -5 6 6 6 11 1
17 -2 13 -5z m40 -10 c-3 -3 -12 -4 -19 -1 -8 3 -5 6 6 6 11 1 17 -2 13 -5z
m-2503 -40 c76 -36 105 -56 44 -31 -45 19 -134 66 -127 67 4 0 41 -16 83 -36z
m2543 30 c-3 -3 -12 -4 -19 -1 -8 3 -5 6 6 6 11 1 17 -2 13 -5z m88 -26 c13
-5 9 -6 -15 -2 -19 4 -42 10 -50 15 -18 11 34 1 65 -13z m65 -18 c18 -12 2
-12 -25 0 -13 6 -15 9 -5 9 8 0 22 -4 30 -9z m84 -26 c26 -9 45 -18 43 -20 -2
-2 -28 5 -58 15 -30 11 -49 20 -43 20 6 1 32 -6 58 -15z m-2664 -14 c8 -5 11
-10 5 -10 -5 0 -17 5 -25 10 -8 5 -10 10 -5 10 6 0 17 -5 25 -10z m50 -20 c8
-5 11 -10 5 -10 -5 0 -17 5 -25 10 -8 5 -10 10 -5 10 6 0 17 -5 25 -10z m2775
-26 c36 -15 64 -28 62 -30 -3 -4 -128 44 -136 52 -10 9 12 3 74 -22z m-2725 6
c8 -5 11 -10 5 -10 -5 0 -17 5 -25 10 -8 5 -10 10 -5 10 6 0 17 -5 25 -10z
m2870 -70 c30 -16 51 -29 45 -29 -5 0 -35 13 -65 29 -30 16 -50 29 -45 29 6 0
35 -13 65 -29z m-2660 -12 c10 -6 7 -7 -10 -2 -14 3 -32 11 -40 16 -10 6 -7 7
10 2 14 -3 32 -11 40 -16z m106 -34 c41 -15 73 -29 71 -31 -4 -3 -148 45 -156
53 -10 9 15 2 85 -22z m2714 -39 c0 -3 -18 4 -40 15 -22 11 -40 23 -40 25 0 3
18 -4 40 -15 22 -11 40 -23 40 -25z m-2565 -15 c13 -6 15 -9 5 -9 -8 0 -22 4
-30 9 -18 12 -2 12 25 0z m85 -30 c18 -12 2 -12 -25 0 -13 6 -15 9 -5 9 8 0
22 -4 30 -9z m106 -36 c41 -15 73 -29 71 -31 -4 -3 -148 45 -156 53 -10 9 15
2 85 -22z m2545 -30 c9 -11 2 -9 -18 6 -18 13 -33 25 -33 27 0 8 38 -17 51
-33z m-2266 -75 c72 -29 135 -56 140 -61 10 -10 -13 -1 -185 69 -58 23 -100
42 -95 43 6 0 69 -23 140 -51z m2430 -59 c10 -11 16 -20 13 -20 -3 0 -13 9
-23 20 -10 11 -16 20 -13 20 3 0 13 -9 23 -20z m-2231 -25 c20 -8 36 -18 36
-20 0 -5 -70 22 -79 30 -8 9 6 5 43 -10z m106 -50 c28 -14 50 -28 50 -30 0 -5
-99 42 -109 51 -12 11 15 1 59 -21z m104 -56 c20 -12 36 -23 36 -25 0 -5 -44
18 -70 35 -27 19 -2 11 34 -10z m2188 -74 c14 -27 -1 -10 -41 45 l-33 45 32
-35 c17 -19 36 -44 42 -55z m-2102 19 c0 -2 -9 0 -20 6 -11 6 -20 13 -20 16 0
2 9 0 20 -6 11 -6 20 -13 20 -16z m136 -96 c4 -7 -9 1 -29 16 -20 16 -37 30
-37 33 0 7 58 -36 66 -49z m2015 -3 l10 -20 -16 20 c-9 11 -21 29 -26 40 l-10
20 16 -20 c9 -11 21 -29 26 -40z m23 -41 c3 -8 2 -12 -4 -9 -6 3 -10 10 -10
16 0 14 7 11 14 -7z m45 -158 c2 -45 -6 -27 -12 29 -4 34 -3 42 3 25 4 -14 8
-38 9 -54z m-1769 -146 c11 -22 18 -40 15 -40 -2 0 -14 18 -25 40 -11 22 -18
40 -15 40 2 0 14 -18 25 -40z m1767 -17 c-3 -10 -5 -4 -5 12 0 17 2 24 5 18 2
-7 2 -21 0 -30z m-10 -45 c-3 -8 -6 -5 -6 6 -1 11 2 17 5 13 3 -3 4 -12 1 -19z
m-1710 -70 c-3 -7 -5 -2 -5 12 0 14 2 19 5 13 2 -7 2 -19 0 -25z m1694 1 c-5
-13 -10 -19 -10 -12 -1 15 10 45 15 40 3 -2 0 -15 -5 -28z m-1697 -123 c-3
-15 -8 -25 -11 -23 -2 3 -1 17 3 31 3 15 8 25 11 23 2 -3 1 -17 -3 -31z m1657
7 c-12 -20 -14 -14 -5 12 4 9 9 14 11 11 3 -2 0 -13 -6 -23z m-18 -38 c-3 -9
-8 -14 -10 -11 -3 3 -2 9 2 15 9 16 15 13 8 -4z m-1662 -28 c-10 -9 -11 -8 -5
6 3 10 9 15 12 12 3 -3 0 -11 -7 -18z m1642 -12 c-3 -9 -8 -14 -10 -11 -3 3
-2 9 2 15 9 16 15 13 8 -4z m-1662 -28 c-10 -9 -11 -8 -5 6 3 10 9 15 12 12 3
-3 0 -11 -7 -18z m1639 -17 c-6 -11 -13 -20 -16 -20 -2 0 0 9 6 20 6 11 13 20
16 20 2 0 0 -9 -6 -20z m-1800 -185 c-41 -41 -77 -75 -79 -75 -3 0 28 34 69
75 41 41 77 75 79 75 3 0 -28 -34 -69 -75z m1680 5 c-17 -22 -34 -40 -37 -40
-2 0 10 18 27 40 17 22 34 40 37 40 2 0 -10 -18 -27 -40z m-100 -123 c0 -1
-37 -38 -82 -82 l-83 -80 80 83 c74 76 85 87 85 79z m-2060 -251 c0 -3 -47
-36 -105 -71 -49 -30 -15 -1 45 39 55 36 60 39 60 32z m1730 -41 c0 -4 -98
-72 -130 -90 -30 -17 1 9 62 51 68 46 68 46 68 39z m-1960 -110 c0 -2 -10 -9
-22 -15 -22 -11 -22 -10 -4 4 21 17 26 19 26 11z m1740 -30 c0 -6 -76 -45 -87
-45 -4 1 12 12 37 25 50 27 50 27 50 20z m-130 -65 c-8 -5 -19 -10 -25 -10 -5
0 -3 5 5 10 8 5 20 10 25 10 6 0 3 -5 -5 -10z m-50 -20 c-8 -5 -19 -10 -25
-10 -5 0 -3 5 5 10 8 5 20 10 25 10 6 0 3 -5 -5 -10z m-55 -20 c-27 -12 -43
-12 -25 0 8 5 22 9 30 9 10 0 8 -3 -5 -9z m-48 -16 c-3 -3 -12 -4 -19 -1 -8 3
-5 6 6 6 11 1 17 -2 13 -5z m-1670 -19 c0 -8 -4 -15 -9 -15 -10 0 -11 14 -1
23 9 10 10 9 10 -8z m1573 -5 c-14 -4 -36 -8 -50 -8 -22 0 -22 1 5 8 17 4 39
8 50 8 16 0 15 -2 -5 -8z m-482 -17 c-197 -2 -519 -2 -715 0 -197 1 -36 2 357
2 393 0 554 -1 358 -2z"/>
<path d="M7892 9921 c46 -43 85 -77 88 -74 6 6 -151 153 -163 153 -5 0 29 -36
75 -79z"/>
<path d="M8120 8845 c-24 -25 -40 -45 -34 -45 13 0 89 78 83 85 -3 2 -25 -16
-49 -40z"/>
<path d="M2700 7874 c-75 -16 -255 -103 -255 -123 0 -7 -11 -20 -25 -29 l-25
-14 25 21 c14 11 21 21 15 21 -5 0 -23 -12 -40 -26 -16 -14 -24 -23 -17 -19
17 9 15 0 -5 -16 -11 -10 -14 -10 -9 -1 4 6 3 12 -2 12 -12 0 -33 -25 -27 -32
3 -3 -3 -11 -12 -19 -16 -13 -17 -12 -4 4 24 30 -4 18 -35 -15 -16 -18 -20
-26 -9 -18 11 7 -16 -23 -60 -68 -77 -79 -102 -101 -74 -64 7 9 -1 4 -19 -12
-33 -31 -45 -59 -14 -35 14 11 13 10 -2 -9 -21 -24 -31 -29 -20 -9 4 6 -2 3
-14 -7 -26 -23 -30 -44 -4 -25 15 11 15 11 4 -1 -7 -8 -18 -15 -24 -15 -6 0
-13 -6 -16 -14 -3 -9 0 -11 8 -6 9 5 11 4 6 -4 -4 -6 -11 -9 -16 -6 -23 14
-136 -209 -176 -350 -24 -85 -29 -277 -10 -374 24 -117 101 -281 126 -266 4 3
14 -3 21 -13 13 -15 12 -16 -3 -3 -38 29 -15 -6 39 -61 60 -61 98 -81 47 -25
l-29 32 32 -29 c18 -16 31 -32 28 -34 -7 -7 15 -32 27 -32 6 0 4 8 -3 18 -11
15 -11 15 1 4 8 -7 15 -18 15 -24 0 -6 6 -13 14 -16 9 -3 11 0 6 9 -5 8 -4 11
1 6 5 -5 9 -14 9 -20 0 -5 6 -12 14 -15 9 -3 11 0 6 8 -5 9 -4 11 4 6 6 -4 9
-11 6 -16 -3 -4 15 -20 39 -34 49 -29 61 -32 50 -14 -4 7 -3 8 5 4 6 -4 9 -11
6 -15 -4 -7 145 -101 160 -101 4 0 3 5 -1 12 -4 7 -3 8 5 4 6 -4 9 -11 6 -15
-2 -5 13 -20 35 -35 46 -30 58 -33 39 -8 -13 15 -12 16 4 3 9 -8 15 -16 12
-19 -7 -7 15 -32 27 -32 6 0 4 8 -3 18 -13 15 -12 16 3 3 10 -7 16 -16 13 -20
-5 -10 109 -123 117 -116 3 3 11 -3 19 -12 13 -16 12 -17 -3 -4 -25 19 -22 9
13 -48 32 -50 47 -66 35 -35 -3 9 -2 12 5 9 5 -4 7 -15 4 -25 -3 -11 -1 -28 4
-39 6 -11 17 -45 26 -76 18 -69 8 -130 -36 -219 -33 -67 -34 -70 -16 -60 7 4
9 3 4 -2 -5 -5 -14 -9 -20 -9 -5 0 -12 -6 -15 -14 -3 -9 0 -11 9 -6 8 5 11 4
6 -1 -5 -5 -12 -9 -15 -9 -13 0 -32 -16 -32 -27 0 -6 7 -5 18 3 15 13 16 12 3
-4 -8 -9 -16 -15 -19 -12 -7 7 -52 -35 -52 -48 0 -6 10 -2 23 9 20 17 20 17
-2 -8 -13 -15 -27 -25 -31 -23 -4 2 -40 -32 -81 -77 -105 -116 -131 -150 -121
-160 5 -5 128 -8 273 -6 239 3 268 5 304 23 42 20 185 150 185 167 0 6 -8 4
-17 -3 -16 -13 -17 -12 -4 4 8 9 16 15 19 12 7 -7 32 15 32 27 0 6 -8 4 -17
-3 -16 -13 -17 -12 -5 3 8 10 18 16 24 15 13 -3 83 121 119 210 60 150 77 320
43 434 -28 93 -106 235 -124 224 -4 -3 -14 3 -21 13 -13 15 -12 16 4 3 9 -7
17 -9 17 -3 0 15 -26 33 -35 24 -5 -4 -5 -2 -2 4 6 10 -44 68 -54 62 -2 -2 -3
-1 -2 1 4 7 -19 31 -29 31 -6 0 -4 -8 3 -17 11 -16 11 -16 -1 -5 -8 7 -15 18
-15 24 0 6 -6 13 -14 16 -9 3 -11 0 -6 -9 5 -8 4 -11 -1 -6 -5 5 -9 14 -9 20
0 5 -6 12 -14 15 -9 3 -11 0 -6 -8 5 -9 4 -11 -4 -6 -6 4 -9 12 -5 17 9 16
-189 103 -395 174 -208 71 -268 98 -344 151 -53 38 -66 43 -46 17 7 -10 -10 4
-39 32 -29 27 -52 51 -52 54 0 3 19 -13 42 -34 l42 -40 -38 45 c-20 25 -43 45
-49 45 -12 0 -67 91 -66 110 0 6 14 -16 30 -49 17 -32 32 -56 35 -54 2 3 -7
25 -21 49 -26 47 -50 132 -60 211 -8 67 20 190 63 278 48 97 47 94 31 85 -8
-5 -11 -4 -6 1 5 5 14 9 20 9 5 0 12 6 15 14 3 9 0 11 -8 6 -9 -6 -11 -4 -6 4
5 7 11 10 14 7 7 -7 42 24 42 37 0 5 -8 3 -17 -4 -16 -13 -17 -12 -4 4 8 9 16
15 19 12 8 -7 152 137 147 146 -3 4 3 13 13 20 15 13 16 12 3 -3 -7 -10 -9
-18 -3 -18 12 0 34 25 27 32 -3 3 3 11 12 19 16 13 17 12 4 -3 -20 -27 -8 -22
59 21 34 22 84 47 111 56 69 23 168 17 234 -15 70 -34 73 -34 45 -10 -23 21
-23 21 -2 9 13 -8 23 -18 23 -24 0 -14 91 -105 100 -99 4 2 11 -1 15 -7 5 -8
3 -9 -6 -4 -8 5 -11 3 -8 -6 3 -8 10 -14 16 -14 5 0 14 -4 19 -9 5 -5 3 -6 -4
-2 -18 10 -16 2 12 -54 14 -27 30 -80 37 -119 16 -92 2 -137 -60 -199 -26 -26
-47 -50 -47 -54 0 -3 -4 -10 -9 -15 -5 -5 -6 -3 -2 5 9 15 1 15 -25 1 -11 -5
-17 -14 -14 -19 3 -5 0 -12 -6 -16 -8 -4 -9 -3 -5 4 12 19 -3 14 -70 -23 -74
-41 -94 -69 -70 -93 27 -27 122 -18 218 20 46 18 83 38 83 45 0 6 4 15 9 20 5
5 6 3 2 -4 -4 -7 -3 -13 2 -13 20 0 132 96 132 113 0 6 -24 -13 -54 -42 -30
-28 -58 -51 -61 -51 -4 0 19 24 51 53 31 28 62 52 68 52 6 0 22 23 36 50 22
45 25 62 24 160 -1 124 -12 185 -56 300 -35 90 -56 127 -68 120 -5 -3 -12 0
-16 6 -4 8 -3 9 4 5 17 -11 15 9 -3 24 -8 7 -15 9 -15 5 0 -4 -26 17 -57 46
-32 29 -57 56 -56 61 4 12 -69 46 -134 63 -70 18 -157 18 -243 -1z m163 -1
c-13 -2 -35 -2 -50 0 -16 2 -5 4 22 4 28 0 40 -2 28 -4z m-148 -18 c-75 -17
-92 -17 -40 0 22 8 54 13 70 13 19 0 7 -5 -30 -13z m257 2 c48 -17 62 -30 17
-16 -19 6 -50 15 -69 19 -28 6 -30 8 -10 9 14 0 42 -5 62 -12z m-382 -42 c-14
-8 -29 -14 -35 -14 -5 0 1 6 15 14 14 8 30 14 35 14 6 0 -1 -6 -15 -14z m465
5 c3 -6 -1 -7 -9 -4 -18 7 -21 14 -7 14 6 0 13 -4 16 -10z m-515 -25 c0 -2
-13 -11 -30 -20 -38 -19 -40 -11 -2 9 31 17 32 18 32 11z m183 -162 c-7 -2
-19 -2 -25 0 -7 3 -2 5 12 5 14 0 19 -2 13 -5z m100 0 c-7 -2 -19 -2 -25 0 -7
3 -2 5 12 5 14 0 19 -2 13 -5z m-153 -10 c-8 -3 -41 -19 -72 -35 -32 -15 -58
-26 -58 -23 0 8 114 64 130 64 13 -1 13 -1 0 -6z m220 -8 c33 -19 21 -19 -21
0 -19 8 -27 14 -19 14 8 0 26 -6 40 -14z m370 -26 c12 -23 20 -43 18 -45 -3
-2 -14 17 -26 41 -27 56 -20 60 8 4z m-230 -74 c19 -19 32 -35 29 -35 -3 0
-20 16 -39 35 -19 19 -32 35 -29 35 3 0 20 -16 39 -35z m270 -30 c0 -5 -5 -3
-10 5 -5 8 -10 20 -10 25 0 6 5 3 10 -5 5 -8 10 -19 10 -25z m-890 -18 c0 -1
-26 -27 -57 -57 l-58 -55 55 58 c50 53 60 62 60 54z m908 -67 c0 -9 -3 -7 -8
5 -5 11 -8 29 -8 40 0 16 2 15 8 -5 4 -14 8 -32 8 -40z m-200 -15 c-3 -3 -9 2
-12 12 -6 14 -5 15 5 6 7 -7 10 -15 7 -18z m20 -40 c-3 -3 -9 2 -12 12 -6 14
-5 15 5 6 7 -7 10 -15 7 -18z m189 -47 c-2 -13 -4 -5 -4 17 -1 22 1 32 4 23 2
-10 2 -28 0 -40z m-168 -18 c0 -9 -4 -8 -9 5 -5 11 -9 27 -9 35 0 9 4 8 9 -5
5 -11 9 -27 9 -35z m-1159 0 c-6 -11 -13 -20 -16 -20 -2 0 0 9 6 20 6 11 13
20 16 20 2 0 0 -9 -6 -20z m1337 -82 c-2 -13 -4 -3 -4 22 0 25 2 35 4 23 2
-13 2 -33 0 -45z m-1395 -27 c-20 -44 -39 -78 -41 -76 -4 5 66 155 73 155 2 0
-12 -36 -32 -79z m1225 2 c-2 -16 -4 -5 -4 22 0 28 2 40 4 28 2 -13 2 -35 0
-50z m-984 2 c-9 -19 -18 -33 -21 -31 -4 5 26 66 33 66 3 0 -3 -16 -12 -35z
m1144 -37 c-3 -7 -5 -2 -5 12 0 14 2 19 5 13 2 -7 2 -19 0 -25z m-180 -35 c-9
-15 -35 -46 -58 -68 l-43 -40 46 51 c25 28 49 61 53 73 4 12 9 20 12 18 2 -3
-2 -18 -10 -34z m-994 12 c-3 -9 -8 -14 -10 -11 -3 3 -2 9 2 15 9 16 15 13 8
-4z m1158 -22 c-12 -20 -14 -14 -5 12 4 9 9 14 11 11 3 -2 0 -13 -6 -23z
m-1177 -37 c-3 -15 -8 -25 -11 -23 -2 3 -1 17 3 31 3 15 8 25 11 23 2 -3 1
-17 -3 -31z m-243 -3 c-12 -20 -14 -14 -5 12 4 9 9 14 11 11 3 -2 0 -13 -6
-23z m-17 -67 c-3 -15 -8 -25 -11 -23 -2 3 -1 17 3 31 3 15 8 25 11 23 2 -3 1
-17 -3 -31z m243 -13 c-3 -10 -5 -4 -5 12 0 17 2 24 5 18 2 -7 2 -21 0 -30z
m-4 -93 c3 -39 2 -55 -3 -40 -8 25 -13 117 -6 109 2 -2 6 -33 9 -69z m-262
-70 c-7 -111 -8 -116 -9 -44 -2 73 7 179 13 172 2 -2 0 -59 -4 -128z m1089
125 c0 -2 -13 -11 -30 -20 -38 -19 -40 -11 -2 9 31 17 32 18 32 11z m-70 -39
c0 -2 -8 -10 -17 -17 -16 -13 -17 -12 -4 4 13 16 21 21 21 13z m190 -21 c-14
-8 -32 -14 -40 -14 -8 0 -1 6 15 14 40 18 57 18 25 0z m-75 -25 c-11 -5 -49
-8 -85 -8 l-65 2 70 6 c102 9 102 9 80 0z m-846 -100 c0 -10 -3 -8 -9 5 -12
27 -12 43 0 25 5 -8 9 -22 9 -30z m-282 -107 c-3 -10 -5 -4 -5 12 0 17 2 24 5
18 2 -7 2 -21 0 -30z m22 -83 c0 -9 -4 -8 -9 5 -5 11 -9 27 -9 35 0 9 4 8 9
-5 5 -11 9 -27 9 -35z m21 -65 c0 -5 -5 -3 -10 5 -5 8 -10 20 -10 25 0 6 5 3
10 -5 5 -8 10 -19 10 -25z m485 -40 l20 -16 -20 10 c-11 5 -29 17 -40 26 l-20
16 20 -10 c11 -5 29 -17 40 -26z m-445 -35 c6 -11 8 -20 6 -20 -3 0 -10 9 -16
20 -6 11 -8 20 -6 20 3 0 10 -9 16 -20z m515 0 c3 -6 -1 -7 -9 -4 -18 7 -21
14 -7 14 6 0 13 -4 16 -10z m70 -31 c22 -10 29 -16 15 -13 -28 7 -80 33 -65
33 6 0 28 -9 50 -20z m80 -29 c13 -6 15 -9 5 -9 -8 0 -22 4 -30 9 -18 12 -2
12 25 0z m60 -20 c13 -6 15 -9 5 -9 -8 0 -22 4 -30 9 -18 12 -2 12 25 0z m60
-20 c13 -6 15 -9 5 -9 -8 0 -22 4 -30 9 -18 12 -2 12 25 0z m-694 -27 c13 -16
12 -17 -3 -4 -17 13 -22 21 -14 21 2 0 10 -8 17 -17z m754 7 c13 -6 15 -9 5
-9 -8 0 -22 4 -30 9 -18 12 -2 12 25 0z m55 -20 c8 -5 11 -10 5 -10 -5 0 -17
5 -25 10 -8 5 -10 10 -5 10 6 0 17 -5 25 -10z m146 -59 c46 -22 84 -42 84 -45
0 -4 -169 71 -179 80 -14 12 22 -1 95 -35z m-706 -107 c0 -2 -9 0 -20 6 -11 6
-20 13 -20 16 0 2 9 0 20 -6 11 -6 20 -13 20 -16z m100 -60 c0 -2 -9 0 -20 6
-11 6 -20 13 -20 16 0 2 9 0 20 -6 11 -6 20 -13 20 -16z m841 9 c13 -16 12
-17 -3 -4 -10 7 -18 15 -18 17 0 8 8 3 21 -13z m-791 -34 c17 -13 18 -17 5
-10 -33 17 -51 31 -40 31 6 0 21 -10 35 -21z m930 -173 c0 -12 -5 -7 -19 24
-11 24 -11 24 3 6 9 -11 16 -24 16 -30z m-685 -6 c21 -22 37 -40 34 -40 -3 0
-23 18 -44 40 -21 22 -37 40 -34 40 3 0 23 -18 44 -40z m705 -45 c0 -5 -5 -3
-10 5 -5 8 -10 20 -10 25 0 6 5 3 10 -5 5 -8 10 -19 10 -25z m17 -67 c-3 -8
-6 -5 -6 6 -1 11 2 17 5 13 3 -3 4 -12 1 -19z m-627 -8 c6 -11 8 -20 6 -20 -3
0 -10 9 -16 20 -6 11 -8 20 -6 20 3 0 10 -9 16 -20z m637 -143 c-2 -23 -3 -1
-3 48 0 50 1 68 3 42 2 -26 2 -67 0 -90z m-589 48 c-3 -3 -9 2 -12 12 -6 14
-5 15 5 6 7 -7 10 -15 7 -18z m21 -55 c0 -10 -3 -8 -9 5 -12 27 -12 43 0 25 5
-8 9 -22 9 -30z m8 -42 c-3 -8 -6 -5 -6 6 -1 11 2 17 5 13 3 -3 4 -12 1 -19z
m3 -88 l-11 -25 6 25 c2 14 5 36 6 50 l2 25 4 -25 c2 -14 -1 -37 -7 -50z m545
30 c-9 -41 -17 -33 -9 9 4 17 9 30 11 27 3 -2 2 -19 -2 -36z m-24 -81 c-5 -13
-10 -19 -10 -12 -1 15 10 45 15 40 3 -2 0 -15 -5 -28z m-20 -56 c-12 -20 -14
-14 -5 12 4 9 9 14 11 11 3 -2 0 -13 -6 -23z m-546 -22 c-21 -43 -29 -39 -8 4
9 19 18 33 21 31 2 -2 -4 -18 -13 -35z m526 -28 c-12 -20 -14 -14 -5 12 4 9 9
14 11 11 3 -2 0 -13 -6 -23z m-18 -38 c-3 -9 -8 -14 -10 -11 -3 3 -2 9 2 15 9
16 15 13 8 -4z m-23 -45 c-6 -11 -13 -20 -16 -20 -2 0 0 9 6 20 6 11 13 20 16
20 2 0 0 -9 -6 -20z m-30 -50 c-6 -11 -13 -20 -16 -20 -2 0 0 9 6 20 6 11 13
20 16 20 2 0 0 -9 -6 -20z m-660 -105 c-24 -25 -46 -45 -49 -45 -3 0 15 20 39
45 24 25 46 45 49 45 3 0 -15 -20 -39 -45z m570 -18 c0 -2 -17 -19 -37 -38
l-38 -34 34 38 c33 34 41 42 41 34z m-671 -94 l-33 -38 250 -5 249 -6 -252 -2
c-158 -1 -253 2 -253 8 0 10 59 80 67 80 3 0 -10 -17 -28 -37z m591 22 c0 -7
-73 -55 -84 -55 -6 0 10 13 34 29 50 33 50 33 50 26z"/>
<path d="M9950 7869 c-83 -21 -225 -89 -225 -106 0 -6 -4 -15 -9 -20 -5 -5 -6
-2 -1 6 5 9 3 12 -6 9 -8 -3 -14 -10 -14 -15 0 -6 -4 -15 -9 -20 -5 -5 -6 -2
-1 6 5 9 3 12 -6 9 -8 -3 -14 -10 -14 -15 0 -6 -4 -15 -9 -20 -5 -5 -6 -2 -1
6 5 9 3 12 -6 9 -8 -3 -13 -10 -12 -16 1 -5 -19 -27 -45 -47 l-47 -37 45 42
c25 23 39 40 31 38 -18 -5 -187 -159 -196 -178 -3 -8 22 12 57 45 l63 60 -59
-62 c-33 -34 -62 -60 -65 -58 -6 7 -61 -46 -61 -58 0 -6 10 -2 23 9 20 17 20
16 -2 -9 -26 -29 -37 -35 -25 -14 4 6 -2 3 -14 -7 -26 -23 -30 -45 -4 -25 15
13 16 12 3 -3 -7 -10 -17 -15 -22 -12 -10 6 -82 -102 -123 -184 -28 -56 -65
-155 -87 -237 -18 -64 -18 -303 -1 -365 32 -113 111 -268 131 -256 5 3 17 -4
27 -17 l19 -22 -22 19 c-39 32 -25 4 19 -41 49 -50 76 -59 32 -10 l-29 32 38
-34 c38 -36 47 -48 25 -35 -7 4 -4 -2 6 -14 23 -26 45 -30 25 -4 -13 15 -12
16 3 3 10 -7 15 -17 13 -22 -6 -8 63 -59 80 -59 5 0 -1 10 -15 21 l-25 21 25
-15 c14 -8 24 -20 23 -25 -2 -9 196 -132 212 -132 3 0 3 5 -1 12 -4 7 -3 8 5
4 6 -4 9 -11 6 -16 -3 -4 11 -17 31 -29 45 -27 56 -27 24 0 l-25 21 25 -14
c14 -9 25 -21 25 -28 0 -8 6 -15 14 -18 9 -3 11 0 6 8 -6 9 -4 11 4 6 7 -5 10
-11 7 -14 -7 -7 13 -32 26 -32 5 0 6 6 2 13 -5 8 -2 7 9 -2 10 -8 15 -16 12
-19 -7 -7 66 -82 79 -82 6 0 -8 19 -29 43 -25 26 -18 22 18 -13 31 -30 57 -56
57 -59 0 -2 -9 4 -20 14 -11 10 -20 14 -20 8 0 -13 35 -45 42 -38 3 3 11 -3
19 -12 13 -16 12 -17 -3 -4 -25 19 -23 11 17 -55 20 -33 45 -90 57 -129 19
-62 20 -75 9 -130 -7 -33 -28 -89 -47 -124 -19 -35 -33 -66 -30 -68 2 -3 12 9
21 26 8 17 18 31 21 31 3 0 -3 -15 -14 -32 -10 -18 -24 -32 -29 -31 -11 2 -73
-70 -73 -84 0 -4 17 10 36 32 l36 40 -35 -45 c-19 -25 -39 -45 -45 -45 -6 0
-45 -37 -86 -82 -74 -79 -99 -115 -53 -77 12 10 9 4 -7 -14 -32 -35 -46 -43
-26 -14 7 9 -1 2 -19 -16 -60 -62 -60 -62 232 -62 239 0 266 2 305 20 24 11
41 24 38 29 -4 5 -1 13 5 17 8 4 9 3 5 -4 -4 -7 -3 -12 2 -12 12 0 33 25 27
32 -2 2 18 26 47 54 28 27 47 42 43 34 -6 -10 -1 -8 13 4 26 23 30 45 5 25
-16 -13 -17 -12 -4 3 7 10 17 15 22 13 4 -3 19 11 33 32 28 40 33 59 14 47 -7
-4 -8 -3 -4 5 4 6 11 9 16 6 11 -7 69 105 95 180 37 109 47 163 48 260 0 83
-4 112 -25 172 -30 84 -75 166 -88 158 -5 -3 -12 0 -16 6 -5 8 -3 9 6 4 8 -5
11 -3 8 6 -3 8 -10 14 -16 14 -6 0 -17 7 -24 15 -11 12 -11 12 5 1 39 -30 13
9 -45 67 -79 78 -188 153 -162 110 4 -7 3 -8 -5 -4 -6 4 -9 12 -5 17 9 15
-123 71 -336 144 -107 36 -229 83 -270 103 -97 48 -94 47 -85 31 5 -8 4 -11
-1 -6 -5 5 -9 14 -9 19 0 6 -6 13 -14 16 -9 3 -11 0 -6 -8 6 -9 4 -11 -4 -6
-7 5 -10 11 -7 14 8 7 -34 52 -47 52 -6 0 -2 -10 9 -22 10 -13 -1 -5 -24 17
-23 21 -42 41 -42 44 0 2 11 -6 25 -19 14 -13 25 -19 25 -13 0 11 -49 59 -57
55 -2 -2 -8 0 -11 4 -4 4 -1 4 7 -1 9 -5 12 -3 9 6 -3 8 -10 14 -15 14 -6 0
-15 4 -20 9 -5 6 -2 6 6 1 10 -6 13 -4 8 6 -52 119 -60 150 -64 229 -6 101 13
192 57 280 33 66 36 74 18 64 -8 -4 -10 -3 -5 2 5 5 14 9 20 9 5 0 12 6 15 14
3 9 0 11 -9 6 -8 -5 -11 -4 -6 1 5 5 14 9 20 9 5 0 12 6 15 14 3 9 0 11 -9 5
-12 -7 -12 -5 0 9 16 20 25 23 15 5 -4 -7 2 -4 14 6 26 23 30 44 5 25 -15 -11
-15 -10 1 8 10 13 22 21 26 18 3 -2 29 19 56 46 27 28 70 66 97 86 26 19 45
39 42 43 -3 5 0 12 6 16 8 5 9 3 4 -6 -5 -8 -3 -11 6 -8 8 3 14 10 14 16 0 5
4 14 9 19 5 5 6 3 2 -4 -10 -18 -7 -17 65 19 112 57 229 50 329 -17 57 -38 69
-43 50 -20 -27 33 -2 12 40 -32 42 -45 42 -46 6 -13 l-39 35 33 -42 c18 -23
36 -40 41 -38 4 3 11 0 15 -6 4 -8 3 -9 -4 -5 -17 10 -15 1 8 -36 52 -84 75
-235 45 -288 -18 -31 -19 -43 -2 -34 8 5 8 3 -2 -9 -7 -9 -17 -15 -21 -12 -4
2 -16 -5 -26 -16 -10 -11 -33 -29 -51 -40 -18 -11 -31 -25 -28 -29 3 -5 0 -12
-6 -16 -8 -4 -9 -3 -5 4 12 19 -3 14 -71 -24 -35 -19 -61 -39 -58 -43 2 -5 -3
-15 -13 -22 -16 -13 -16 -13 -2 5 13 17 13 19 0 14 -9 -3 -15 -17 -15 -33 0
-48 62 -54 180 -18 69 22 147 62 140 73 -3 4 9 18 27 30 l33 22 -30 -26 c-16
-14 -26 -26 -21 -26 17 0 76 51 73 63 -1 7 3 11 10 10 16 -4 57 51 84 112 44
100 7 368 -73 517 -32 60 -132 178 -150 178 -6 0 -3 -10 8 -22 l19 -23 -22 19
c-13 10 -20 22 -17 27 7 12 -85 56 -153 74 -76 20 -162 18 -253 -6z m173 4
c-13 -2 -35 -2 -50 0 -16 2 -5 4 22 4 28 0 40 -2 28 -4z m-84 -7 c-2 -2 -26
-6 -54 -9 -32 -4 -43 -3 -30 3 19 8 93 14 84 6z m214 -16 c29 -11 62 -27 73
-35 10 -8 -7 -4 -38 10 -31 14 -76 30 -100 34 -31 6 -35 9 -16 10 15 1 51 -8
81 -19z m-373 -24 c-30 -12 -70 -30 -87 -40 -18 -9 -33 -14 -33 -11 0 9 142
74 160 74 8 0 -10 -10 -40 -23z m604 -168 c24 -42 18 -36 -29 27 -22 29 -28
41 -14 28 13 -12 33 -37 43 -55z m-529 -32 c-27 -7 -69 -22 -92 -34 -24 -13
-43 -20 -43 -17 0 6 78 46 110 56 14 4 36 7 50 7 14 0 3 -5 -25 -12z m128 7
c-7 -2 -19 -2 -25 0 -7 3 -2 5 12 5 14 0 19 -2 13 -5z m44 -9 c-3 -3 -12 -4
-19 -1 -8 3 -5 6 6 6 11 1 17 -2 13 -5z m387 -20 c3 -8 2 -12 -4 -9 -6 3 -10
10 -10 16 0 14 7 11 14 -7z m26 -59 c0 -5 -5 -3 -10 5 -5 8 -10 20 -10 25 0 6
5 3 10 -5 5 -8 10 -19 10 -25z m-790 -18 c0 -1 -21 -20 -47 -41 l-48 -38 44
41 c40 38 51 46 51 38z m809 -37 c0 -10 -3 -8 -9 5 -12 27 -12 43 0 25 5 -8 9
-22 9 -30z m19 -80 c0 -9 -3 -7 -8 5 -5 11 -8 29 -8 40 0 16 2 15 8 -5 4 -14
8 -32 8 -40z m-928 37 c0 -2 -17 -19 -37 -38 l-38 -34 34 38 c33 34 41 42 41
34z m720 -37 c6 -11 8 -20 6 -20 -3 0 -10 9 -16 20 -6 11 -8 20 -6 20 3 0 10
-9 16 -20z m30 -65 c0 -5 -5 -3 -10 5 -5 8 -10 20 -10 25 0 6 5 3 10 -5 5 -8
10 -19 10 -25z m199 -120 c0 -38 -3 -78 -7 -87 -4 -9 -7 40 -7 110 -1 82 2
113 7 87 4 -22 7 -71 7 -110z m-180 65 c0 -10 -3 -8 -9 5 -12 27 -12 43 0 25
5 -8 9 -22 9 -30z m-1174 -40 c-9 -16 -18 -30 -21 -30 -2 0 2 14 11 30 9 17
18 30 21 30 2 0 -2 -13 -11 -30z m1182 -82 c-2 -18 -4 -4 -4 32 0 36 2 50 4
33 2 -18 2 -48 0 -65z m-974 27 c-3 -9 -8 -14 -10 -11 -3 3 -2 9 2 15 9 16 15
13 8 -4z m-262 -48 c-10 -9 -11 -8 -5 6 3 10 9 15 12 12 3 -3 0 -11 -7 -18z
m242 8 c-3 -9 -8 -14 -10 -11 -3 3 -2 9 2 15 9 16 15 13 8 -4z m-22 -52 c-12
-20 -14 -14 -5 12 4 9 9 14 11 11 3 -2 0 -13 -6 -23z m1000 4 c-10 -9 -11 -8
-5 6 3 10 9 15 12 12 3 -3 0 -11 -7 -18z m155 -34 c-8 -16 -22 -36 -32 -43 -9
-8 -5 3 10 24 14 21 26 43 26 49 0 6 3 8 6 5 3 -4 -1 -19 -10 -35z m-1172 -27
c-3 -15 -8 -25 -11 -23 -2 3 -1 17 3 31 3 15 8 25 11 23 2 -3 1 -17 -3 -31z
m-243 -3 c-12 -20 -14 -14 -5 12 4 9 9 14 11 11 3 -2 0 -13 -6 -23z m1179 -29
c-8 -8 -23 -20 -34 -25 -13 -7 -9 -1 9 15 34 29 43 33 25 10z m-1196 -38 c-3
-15 -8 -25 -11 -23 -2 3 -1 17 3 31 3 15 8 25 11 23 2 -3 1 -17 -3 -31z m243
-108 c-2 -24 -4 -5 -4 42 0 47 2 66 4 43 2 -24 2 -62 0 -85z m863 87 c0 -2
-18 -14 -40 -25 -22 -11 -40 -18 -40 -15 0 2 17 13 38 24 42 23 42 23 42 16z
m-1125 -178 c0 -87 -2 -125 -7 -97 -9 59 -9 136 -2 194 4 25 7 46 8 46 0 0 1
-64 1 -143z m1260 123 c-3 -5 -12 -10 -18 -10 -7 0 -6 4 3 10 19 12 23 12 15
0z m-70 -31 c-22 -10 -47 -18 -55 -18 -8 0 5 8 30 19 59 24 76 24 25 -1z
m-129 -27 c-32 -2 -63 1 -67 5 -4 4 22 6 59 3 l67 -5 -59 -3z m-742 -168 c3
-8 2 -12 -4 -9 -6 3 -10 10 -10 16 0 14 7 11 14 -7z m-307 -76 c-3 -8 -6 -5
-6 6 -1 11 2 17 5 13 3 -3 4 -12 1 -19z m33 -93 c0 -5 -5 -3 -10 5 -5 8 -10
20 -10 25 0 6 5 3 10 -5 5 -8 10 -19 10 -25z m20 -50 c0 -5 -5 -3 -10 5 -5 8
-10 20 -10 25 0 6 5 3 10 -5 5 -8 10 -19 10 -25z m586 -63 c-5 -4 -126 56
-126 63 0 3 29 -10 65 -27 35 -18 63 -34 61 -36z m-551 6 c16 -24 22 -38 14
-31 -15 12 -53 73 -46 73 2 0 17 -19 32 -42z m595 -18 c8 -5 11 -10 5 -10 -5
0 -17 5 -25 10 -8 5 -10 10 -5 10 6 0 17 -5 25 -10z m55 -20 c13 -6 15 -9 5
-9 -8 0 -22 4 -30 9 -18 12 -2 12 25 0z m60 -20 c13 -6 15 -9 5 -9 -8 0 -22 4
-30 9 -18 12 -2 12 25 0z m60 -20 c13 -6 15 -9 5 -9 -8 0 -22 4 -30 9 -18 12
-2 12 25 0z m60 -20 c13 -6 15 -9 5 -9 -8 0 -22 4 -30 9 -18 12 -2 12 25 0z
m60 -20 c13 -6 15 -9 5 -9 -8 0 -22 4 -30 9 -18 12 -2 12 25 0z m80 -31 c22
-10 29 -16 15 -13 -28 7 -80 33 -65 33 6 0 28 -9 50 -20z m70 -37 c-3 -3 -11
0 -18 7 -9 10 -8 11 6 5 10 -3 15 -9 12 -12z m40 -20 c-3 -3 -11 0 -18 7 -9
10 -8 11 6 5 10 -3 15 -9 12 -12z m118 -71 c7 -8 -7 -2 -30 14 -24 15 -43 30
-43 32 0 7 61 -31 73 -46z m-873 -7 c0 -2 -9 0 -20 6 -11 6 -20 13 -20 16 0 2
9 0 20 -6 11 -6 20 -13 20 -16z m70 -40 c0 -2 -9 0 -20 6 -11 6 -20 13 -20 16
0 2 9 0 20 -6 11 -6 20 -13 20 -16z m875 -14 c21 -22 37 -40 34 -40 -3 0 -23
18 -44 40 -21 22 -37 40 -34 40 3 0 23 -18 44 -40z m-805 -26 c0 -2 -13 2 -30
11 -16 9 -30 18 -30 21 0 2 14 -2 30 -11 17 -9 30 -18 30 -21z m910 -114 c6
-11 8 -20 6 -20 -3 0 -10 9 -16 20 -6 11 -8 20 -6 20 3 0 10 -9 16 -20z m24
-46 c3 -8 2 -12 -4 -9 -6 3 -10 10 -10 16 0 14 7 11 14 -7z m26 -59 c0 -5 -5
-3 -10 5 -5 8 -10 20 -10 25 0 6 5 3 10 -5 5 -8 10 -19 10 -25z m19 -65 c0 -9
-4 -8 -9 5 -5 11 -9 27 -9 35 0 9 4 8 9 -5 5 -11 9 -27 9 -35z m-614 -40 c9
-16 13 -30 11 -30 -3 0 -12 14 -21 30 -9 17 -13 30 -11 30 3 0 12 -13 21 -30z
m622 -32 c-2 -13 -4 -5 -4 17 -1 22 1 32 4 23 2 -10 2 -28 0 -40z m-568 -88
c0 -8 -6 0 -14 19 -8 18 -15 36 -15 40 1 13 29 -45 29 -59z m568 -37 c-2 -16
-4 -5 -4 22 0 28 2 40 4 28 2 -13 2 -35 0 -50z m-548 -58 c0 -22 -3 -48 -7
-57 -4 -10 -7 16 -7 57 0 41 3 67 7 57 4 -9 7 -35 7 -57z m535 -29 c-3 -15 -8
-25 -11 -23 -2 3 -1 17 3 31 3 15 8 25 11 23 2 -3 1 -17 -3 -31z m-23 -73
c-12 -20 -14 -14 -5 12 4 9 9 14 11 11 3 -2 0 -13 -6 -23z m-545 -30 c-8 -15
-15 -25 -16 -21 0 12 23 58 27 54 3 -2 -2 -17 -11 -33z m525 -30 c-12 -20 -14
-14 -5 12 4 9 9 14 11 11 3 -2 0 -13 -6 -23z m-18 -43 c-3 -11 -10 -23 -16
-27 -5 -3 -8 -2 -5 3 3 5 8 17 11 27 9 24 16 22 10 -3z m-40 -75 c-3 -9 -8
-14 -10 -11 -3 3 -2 9 2 15 9 16 15 13 8 -4z m-43 -74 c-5 -11 -15 -23 -21
-27 -6 -3 -3 5 6 20 20 30 30 35 15 7z m-590 -24 c0 -2 -17 -19 -37 -38 l-38
-34 34 38 c33 34 41 42 41 34z m-185 -207 c-4 -6 83 -11 242 -13 l248 -2 -252
-3 c-231 -2 -266 1 -246 21 10 10 15 8 8 -3z m522 -6 c-3 -3 -12 -4 -19 -1 -8
3 -5 6 6 6 11 1 17 -2 13 -5z"/>
<path d="M3132 7761 c29 -27 55 -47 58 -44 6 6 -88 93 -102 93 -5 0 15 -22 44
-49z"/>
<path d="M2195 7560 c-27 -27 -47 -52 -44 -55 3 -2 30 20 59 50 30 30 50 55
44 55 -5 0 -32 -22 -59 -50z"/>
<path d="M10394 4999 c-21 -23 -30 -37 -19 -31 25 13 70 60 64 67 -3 2 -23
-14 -45 -36z"/>
<path d="M4 4671 c-2 -2 -4 -8 -4 -12 0 -4 252 -135 560 -291 367 -185 584
-301 628 -334 177 -134 325 -387 562 -964 303 -736 446 -1028 675 -1375 358
-542 796 -935 1354 -1214 443 -222 965 -369 1551 -435 579 -66 1248 -58 1805
20 863 121 1577 413 2175 890 151 121 443 407 569 559 230 277 442 591 673
1000 25 44 127 233 228 420 221 412 363 654 472 800 94 128 257 294 343 350
56 37 299 151 933 440 184 84 261 124 259 135 -2 13 -782 14 -6390 15 -3514 0
-6391 -2 -6393 -4z"/>
</g>
</svg>
